<svg width="16" height="20" viewBox="0 0 16 20" fill="none" xmlns="http://www.w3.org/2000/svg">
<path d="M7.64 0.0559993C8.616 0.0559993 9.544 0.199999 10.424 0.487999C11.32 0.76 12.104 1.2 12.776 1.808C13.448 2.4 13.976 3.168 14.36 4.112C14.76 5.056 14.96 6.2 14.96 7.544V10.4C14.96 11.552 14.824 12.544 14.552 13.376C14.28 14.208 13.904 14.928 13.424 15.536L15.416 17.504L13.664 19.304L11.432 17.096C10.872 17.368 10.272 17.568 9.632 17.696C8.992 17.824 8.328 17.888 7.64 17.888C6.648 17.888 5.704 17.752 4.808 17.48C3.928 17.208 3.152 16.776 2.48 16.184C1.824 15.592 1.296 14.824 0.896 13.88C0.512 12.92 0.32 11.76 0.32 10.4V7.544C0.32 6.2 0.512 5.056 0.896 4.112C1.296 3.168 1.832 2.4 2.504 1.808C3.176 1.2 3.952 0.76 4.832 0.487999C5.728 0.199999 6.664 0.0559993 7.64 0.0559993ZM7.64 15.08C7.912 15.08 8.176 15.072 8.432 15.056C8.704 15.024 8.96 14.968 9.2 14.888L7.16 12.848L8.912 11.048L11.168 13.304C11.392 12.92 11.56 12.464 11.672 11.936C11.8 11.392 11.864 10.752 11.864 10.016V7.928C11.864 6.936 11.752 6.112 11.528 5.456C11.32 4.8 11.024 4.28 10.64 3.896C10.256 3.512 9.808 3.248 9.296 3.104C8.784 2.944 8.232 2.864 7.64 2.864C7.064 2.864 6.52 2.944 6.008 3.104C5.496 3.248 5.048 3.512 4.664 3.896C4.28 4.28 3.976 4.8 3.752 5.456C3.528 6.112 3.416 6.936 3.416 7.928V10.016C3.416 11.008 3.528 11.832 3.752 12.488C3.976 13.144 4.28 13.664 4.664 14.048C5.048 14.432 5.496 14.704 6.008 14.864C6.52 15.008 7.064 15.08 7.64 15.08Z" fill="#222222"/>
</svg>
